<svg width="307" height="307" viewBox="0 0 307 307" fill="none" xmlns="http://www.w3.org/2000/svg">
<path d="M119.119 63.4127L153.5 4.93279L187.881 63.4127C188.9 65.1457 190.945 65.9928 192.89 65.4877L258.553 48.4471L241.512 114.11C241.007 116.055 241.854 118.1 243.587 119.119L302.067 153.5L243.587 187.881C241.854 188.9 241.007 190.945 241.512 192.89L258.553 258.553L192.89 241.512C190.945 241.007 188.9 241.854 187.881 243.587L153.5 302.067L119.119 243.587C118.1 241.854 116.055 241.007 114.11 241.512L48.4471 258.553L65.4877 192.89C65.9928 190.945 65.1457 188.9 63.4127 187.881L4.93279 153.5L63.4127 119.119C65.1458 118.1 65.9927 116.055 65.4877 114.11L48.4471 48.4471L114.11 65.4877C116.055 65.9927 118.1 65.1458 119.119 63.4127ZM258.767 47.6239L258.766 47.6256L258.767 47.6239ZM47.6239 258.767C47.6245 258.766 47.6251 258.766 47.6256 258.766L47.6239 258.767Z" fill="#671FEC" stroke="white" stroke-width="5"/>
</svg>
