<svg width="1440" height="1363" viewBox="0 0 1440 1363" fill="none" xmlns="http://www.w3.org/2000/svg">
<path fill-rule="evenodd" clip-rule="evenodd" d="M133.5 35.9436C140.367 42.8769 148.933 46.3436 159.2 46.3436C165.667 46.3436 171.1 45.3769 175.5 43.4436C179.967 41.5102 184.1 38.5102 187.9 34.4436L178.1 23.9436C175.033 26.7436 172.133 28.8102 169.4 30.1436C166.667 31.4769 163.433 32.1436 159.7 32.1436C153.833 32.1436 148.967 30.0102 145.1 25.7436C141.3 21.4769 139.4 16.2769 139.4 10.1436C139.4 6.39726 140.094 3.01608 141.481 1.97956e-07L200.228 1.08509e-07V45.1436H215.628V22.7436H227.528L242.728 45.1436H260.728L243.628 20.1436C253.137 16.5936 258.125 9.8791 258.592 1.8945e-07L272.494 1.08509e-07V45.1436H287.594V1.08509e-07H287.763L307.094 29.3436H307.494L326.827 1.08509e-07H327.194V45.1436H342.494V1.08509e-07H1441V1363H0V1.08509e-07L124.583 0C123.728 3.18604 123.3 6.56723 123.3 10.1436C123.3 20.3436 126.7 28.9436 133.5 35.9436ZM310.442 1.08509e-07H304.545L307.494 4.74355L310.442 1.08509e-07ZM215.628 1.08509e-07L242.993 4.15121e-08C242.797 2.62721 241.775 4.77506 239.928 6.44355C237.861 8.24355 234.961 9.14355 231.228 9.14355H215.628V1.08509e-07Z" fill="#671FEC"/>
</svg>
