<svg width="219" height="28" viewBox="0 0 219 28" fill="none" xmlns="http://www.w3.org/2000/svg">
<path fill-rule="evenodd" clip-rule="evenodd" d="M134.585 27.1443C134.614 26.5875 134.629 26.0205 134.629 25.4434C134.629 18.6434 132.629 13.2434 128.629 9.24336C123.895 4.51002 117.095 2.14336 108.229 2.14336H76.2286V27.1443H91.6286V16.0434H106.929C110.729 16.0434 113.695 16.91 115.829 18.6434C117.962 20.31 119.029 22.7767 119.029 26.0434C119.029 26.4194 119.013 26.7864 118.982 27.1443H134.585ZM163.594 27.1443H148.494V2.14336H165.094L180.635 27.1443H163.858L163.594 26.7434V27.1443ZM203.194 27.1443V26.4434L202.732 27.1443H186.353L201.894 2.14336H218.494V27.1443H203.194ZM0.544922 27.1443C2.10209 21.2439 5.1206 16.0102 9.60045 11.4434C16.4671 4.44336 25.2005 0.943359 35.8005 0.943359C41.8671 0.943359 46.9671 1.94336 51.1005 3.94336C55.2338 5.87669 59.1671 8.67669 62.9005 12.3434L53.7005 22.9434C50.7005 20.21 47.8671 18.2434 45.2005 17.0434C42.6005 15.7767 39.4338 15.1434 35.7005 15.1434C29.8338 15.1434 24.9671 17.2767 21.1005 21.5434C19.56 23.246 18.3317 25.113 17.4157 27.1443H0.544922Z" fill="#671FEC"/>
</svg>
