<svg width="64" height="72" viewBox="0 0 64 72" fill="none" xmlns="http://www.w3.org/2000/svg">
<path d="M30.2302 3.86223C30.9801 2.43766 33.0199 2.43767 33.7698 3.86223L39.0163 13.8295C39.4586 14.6698 40.4308 15.0832 41.3429 14.8189L51.3503 11.9181C52.8178 11.4928 54.201 12.8035 53.8552 14.2917L51.089 26.1969C50.8993 27.0133 51.2387 27.8613 51.9393 28.3214L61.454 34.569C62.657 35.359 62.657 37.1227 61.454 37.9126L51.9393 44.1603C51.2387 44.6204 50.8993 45.4684 51.089 46.2848L53.8552 58.19C54.201 59.6782 52.8178 60.9889 51.3503 60.5635L41.3429 57.6628C40.4308 57.3985 39.4586 57.8119 39.0163 58.6522L33.7698 68.6195C33.0199 70.044 30.9801 70.044 30.2302 68.6195L24.9837 58.6522C24.5414 57.8119 23.5692 57.3985 22.6571 57.6628L12.6497 60.5635C11.1822 60.9889 9.79901 59.6782 10.1448 58.19L12.911 46.2848C13.1007 45.4684 12.7613 44.6204 12.0607 44.1603L2.54601 37.9126C1.34303 37.1227 1.34303 35.359 2.54601 34.569L12.0607 28.3214C12.7613 27.8613 13.1007 27.0133 12.911 26.1969L10.1448 14.2917C9.79901 12.8035 11.1822 11.4928 12.6497 11.9181L22.6571 14.8189C23.5692 15.0832 24.5414 14.6698 24.9837 13.8295L30.2302 3.86223Z" fill="#E9E9E9"/>
<path d="M42 28.4229L28.9375 42.9426L23 36.3427" stroke="#671FEC" stroke-width="4" stroke-linecap="round" stroke-linejoin="round"/>
</svg>
