<svg width="1097" height="256" viewBox="0 0 1097 256" fill="none" xmlns="http://www.w3.org/2000/svg">
<path d="M153.782 3.99999H208.032L105.482 256H50.532L87.982 170.6L0.832031 3.99999H59.982L112.832 109.7L153.782 3.99999ZM344.237 117.75L381.337 139.8C373.403 155.2 362.087 167.217 347.387 175.85C332.687 184.483 316.587 188.8 299.087 188.8C270.153 188.8 246.47 180.167 228.037 162.9C209.603 145.633 200.387 122.883 200.387 94.65C200.387 66.8833 209.487 44.25 227.687 26.75C246.12 9.01666 269.103 0.149994 296.637 0.149994C314.837 0.149994 331.52 3.88333 346.687 11.35C362.087 18.8167 373.17 30.25 379.937 45.65L342.137 70.15C336.07 62.2167 329.887 56.5 323.587 53C317.287 49.2667 309.353 47.4 299.787 47.4C285.787 47.4 274.47 51.8333 265.837 60.7C257.203 69.3333 252.887 80.65 252.887 94.65C252.887 108.417 258.02 119.733 268.287 128.6C278.553 137.233 290.687 141.55 304.687 141.55C321.487 141.55 334.67 133.617 344.237 117.75ZM568.25 186H517.5V51.25H468.15V56.15C468.15 65.95 467.917 74.8167 467.45 82.75C466.984 90.45 466.05 99.9 464.65 111.1C463.484 122.067 461.267 131.75 458 140.15C454.967 148.317 451 156.25 446.1 163.95C441.434 171.65 435.134 177.6 427.2 181.8C419.267 185.767 410.05 187.75 399.55 187.75C393.017 187.75 386.95 187.167 381.35 186V140.5C382.75 140.733 384.85 140.85 387.65 140.85C396.05 140.85 402.117 138.283 405.85 133.15C409.817 128.017 412.967 120.55 415.3 110.75C418.567 96.9833 420.2 74.5833 420.2 43.55V3.99999H568.25V186ZM728.22 3.99999H782.47L679.92 256H624.97L662.42 170.6L575.27 3.99999H634.42L687.27 109.7L728.22 3.99999ZM841.844 186H791.094V3.99999H933.194V51.25H841.844V186ZM1073.56 86.95L992.013 186H948.963V3.99999H999.713V103.05L1081.26 3.99999H1124.31V186H1073.56V86.95Z" fill="#E9E9E9"/>
</svg>
