<svg width="191" height="195" viewBox="0 0 191 195" fill="none" xmlns="http://www.w3.org/2000/svg">
<path d="M114.198 13.6545L114.61 13.7722L115.033 13.8451L130.82 16.5688C133.025 16.9493 135.08 17.939 136.753 19.4261L148.725 30.0706L149.046 30.3555L149.395 30.6046L162.437 39.9082C164.259 41.208 165.681 42.9913 166.543 45.0568L172.711 59.8419L172.876 60.2376L173.083 60.6135L180.796 74.6544C181.874 76.6159 182.381 78.8397 182.261 81.0746L181.404 97.0718L181.381 97.5L181.404 97.9282L182.261 113.925C182.381 116.16 181.874 118.384 180.796 120.346L173.083 134.387L172.876 134.762L172.711 135.158L166.543 149.943C165.681 152.009 164.259 153.792 162.437 155.092L149.395 164.395L149.046 164.644L148.725 164.929L136.753 175.574C135.08 177.061 133.025 178.051 130.82 178.431L115.033 181.155L114.61 181.228L114.198 181.345L98.7926 185.741C96.6405 186.355 94.3595 186.355 92.2074 185.741L76.802 181.345L76.3897 181.228L75.9671 181.155L60.1802 178.431C57.9747 178.051 55.9196 177.061 54.247 175.574L42.2745 164.929L41.9541 164.644L41.605 164.395L28.5632 155.092C26.7412 153.792 25.3191 152.009 24.4573 149.943L18.289 135.158L18.1239 134.762L17.9174 134.387L10.2039 120.346C9.1263 118.384 8.61873 116.16 8.73852 113.925L9.59603 97.9282L9.61898 97.5L9.59603 97.0718L8.73852 81.0746C8.61873 78.8397 9.1263 76.6159 10.2039 74.6544L17.9174 60.6135L18.1239 60.2376L18.289 59.8419L24.4573 45.0568C25.3191 42.9913 26.7412 41.208 28.5632 39.9082L41.605 30.6046L41.9541 30.3555L42.2745 30.0706L54.247 19.4261C55.9196 17.939 57.9747 16.9493 60.1802 16.5688L75.9671 13.8451L76.3897 13.7722L76.802 13.6545L92.2074 9.25881C94.3595 8.64473 96.6405 8.64473 98.7926 9.25881L114.198 13.6545Z" stroke="#E9E9E9" stroke-opacity="0.72" stroke-width="16"/>
</svg>
