<svg width="84" height="86" viewBox="0 0 84 86" fill="none" xmlns="http://www.w3.org/2000/svg">
<path d="M50.1168 6.47569L50.323 6.53452L50.5343 6.57098L54.3532 7.22986C57.2939 7.7372 60.034 9.05678 62.2641 11.0395L65.1603 13.6145L65.3205 13.757L65.4951 13.8815L68.65 16.1321C71.0793 17.8651 72.9755 20.2429 74.1245 22.9969L75.6166 26.5735L75.6992 26.7713L75.8024 26.9593L77.6684 30.3558C79.1051 32.9712 79.7819 35.9363 79.6222 38.9161L79.4147 42.7859L79.4033 43L79.4147 43.2141L79.6222 47.0839C79.7819 50.0637 79.1051 53.0288 77.6684 55.6442L75.8024 59.0407L75.6992 59.2287L75.6166 59.4265L74.1245 63.0031C72.9755 65.7571 71.0793 68.1349 68.65 69.8679L65.4951 72.1185L65.3205 72.243L65.1603 72.3855L62.2641 74.9605C60.034 76.9432 57.2939 78.2628 54.3533 78.7701L50.5343 79.429L50.323 79.4655L50.1168 79.5243L46.3902 80.5877C43.5207 81.4064 40.4793 81.4064 37.6098 80.5877L33.8832 79.5243L33.677 79.4655L33.4657 79.429L29.6467 78.7701C26.7061 78.2628 23.966 76.9432 21.7359 74.9605L18.8397 72.3855L18.6795 72.243L18.5049 72.1185L15.35 69.8679C12.9207 68.1349 11.0245 65.7571 9.87555 63.0031L8.38339 59.4265L8.30083 59.2287L8.19759 59.0407L6.33165 55.6442C4.89486 53.0288 4.2181 50.0637 4.37783 47.0839L4.58527 43.2141L4.59674 43L4.58527 42.7859L4.37783 38.9161C4.2181 35.9363 4.89486 32.9712 6.33165 30.3558L8.19759 26.9593L8.30083 26.7713L8.38339 26.5735L9.87554 22.9969C11.0245 20.2429 12.9207 17.8651 15.35 16.1321L18.5049 13.8815L18.6795 13.757L18.8397 13.6145L21.7359 11.0395C23.966 9.05678 26.7061 7.7372 29.6467 7.22986L33.4657 6.57098L33.677 6.53452L33.8832 6.47569L37.6098 5.41234C40.4793 4.59355 43.5207 4.59355 46.3902 5.41234L50.1168 6.47569Z" stroke="#E9E9E9" stroke-opacity="0.7" stroke-width="8"/>
</svg>
