<svg width="495" height="698" viewBox="0 0 495 698" fill="none" xmlns="http://www.w3.org/2000/svg">
<path d="M334.512 1.56586C338.099 0.542379 341.901 0.542378 345.488 1.56586L414.786 21.3394L485.802 33.5916C489.477 34.2258 492.903 35.8753 495.69 38.3537L549.547 86.2366L608.213 128.088C611.25 130.254 613.62 133.226 615.057 136.669L642.804 203.177L677.502 266.338C679.298 269.608 680.144 273.314 679.944 277.039L676.087 349L679.944 420.961C680.144 424.686 679.298 428.392 677.502 431.661L642.804 494.823L615.057 561.331C613.62 564.774 611.25 567.746 608.213 569.912L549.547 611.763L495.69 659.646C492.903 662.125 489.478 663.774 485.802 664.408L414.786 676.661L345.488 696.434C341.901 697.458 338.099 697.458 334.512 696.434L265.214 676.661L194.198 664.408C190.522 663.774 187.097 662.125 184.31 659.646L130.453 611.763L71.7866 569.912C68.75 567.746 66.3797 564.774 64.9435 561.331L37.1961 494.823L2.49789 431.661C0.701905 428.392 -0.144042 424.686 0.0556167 420.961L3.91299 349L0.0556172 277.039C-0.144041 273.314 0.701905 269.608 2.49789 266.339L37.1961 203.177L64.9435 136.669C66.3797 133.226 68.75 130.254 71.7866 128.088L130.453 86.2366L184.31 38.3537C187.097 35.8753 190.522 34.2258 194.198 33.5916L265.214 21.3394L334.512 1.56586Z" fill="#671FEC"/>
<path d="M409.299 40.5718L410.33 40.866L411.386 41.0482L482.401 53.3004L536.258 101.183L537.059 101.896L537.932 102.518L596.598 144.37L624.346 210.878L624.759 211.867L625.275 212.807L659.973 275.968L656.116 347.929L656.058 349L656.116 350.071L659.973 422.032L625.275 485.193L624.759 486.133L624.346 487.122L596.598 553.63L537.932 595.482L537.059 596.104L536.258 596.817L482.401 644.7L411.386 656.952L410.33 657.134L409.299 657.428L340 677.202L270.701 657.428L269.67 657.134L268.614 656.952L197.599 644.7L143.742 596.817L142.941 596.104L142.068 595.482L83.4015 553.63L55.6541 487.122L55.2413 486.133L54.7251 485.193L20.0269 422.032L23.8843 350.071L23.9417 349L23.8843 347.929L20.0269 275.968L54.7251 212.807L55.2413 211.867L55.6541 210.878L83.4015 144.37L142.068 102.518L142.941 101.896L143.742 101.183L197.599 53.3004L268.614 41.0482L269.67 40.866L270.701 40.5718L340 20.7983L409.299 40.5718Z" stroke="#E9E9E9" stroke-opacity="0.9" stroke-width="40"/>
</svg>
