<svg width="302" height="338" viewBox="0 0 302 338" fill="none" xmlns="http://www.w3.org/2000/svg">
<path d="M197.922 21.8728L198.541 22.0493L199.174 22.1587L230.662 27.5913C232.133 27.845 233.503 28.5048 234.618 29.4961L258.498 50.7273L258.978 51.1547L259.502 51.5283L285.515 70.0851C286.729 70.9515 287.678 72.1404 288.252 73.5174L300.555 103.007L300.803 103.601L301.113 104.165L316.498 132.17C317.216 133.478 317.554 134.96 317.475 136.45L315.764 168.358L315.73 169L315.764 169.642L317.475 201.55C317.554 203.04 317.216 204.522 316.498 205.83L301.113 233.835L300.803 234.399L300.555 234.993L288.252 264.483C287.678 265.86 286.729 267.048 285.515 267.915L259.502 286.472L258.978 286.845L258.498 287.273L234.618 308.504C233.503 309.495 232.133 310.155 230.662 310.409L199.174 315.841L198.541 315.951L197.922 316.127L167.195 324.895C165.76 325.304 164.24 325.304 162.805 324.895L132.078 316.127L131.459 315.951L130.826 315.841L99.3375 310.409C97.8672 310.155 96.4972 309.495 95.3821 308.504L71.5022 287.273L71.0215 286.845L70.4979 286.472L44.4852 267.915C43.2706 267.048 42.3225 265.86 41.748 264.483L29.4448 234.993L29.1972 234.399L28.8875 233.835L13.5024 205.83C12.784 204.522 12.4456 203.04 12.5254 201.55L14.2358 169.642L14.2702 169L14.2358 168.358L12.5254 136.45C12.4456 134.96 12.784 133.478 13.5024 132.17L28.8875 104.165L29.1972 103.601L29.4448 103.007L41.748 73.5174C42.3225 72.1404 43.2706 70.9515 44.4852 70.085L70.4979 51.5283L71.0215 51.1547L71.5022 50.7273L95.3821 29.4961C96.4972 28.5048 97.8672 27.845 99.3375 27.5913L130.826 22.1587L131.459 22.0493L132.078 21.8728L162.805 13.1053C164.24 12.6959 165.76 12.6959 167.195 13.1053L197.922 21.8728Z" stroke="#E9E9E9" stroke-opacity="0.78" stroke-width="24"/>
</svg>
