<svg width="390" height="505" viewBox="0 0 390 505" fill="none" xmlns="http://www.w3.org/2000/svg">
<path d="M296.217 30.8249L297.042 31.0602L297.887 31.206L347.712 39.8022C348.447 39.929 349.132 40.2589 349.689 40.7546L387.475 74.3492L388.116 74.9191L388.814 75.4172L429.975 104.78C430.582 105.213 431.056 105.808 431.343 106.496L450.811 153.158L451.141 153.95L451.554 154.702L475.898 199.016C476.258 199.669 476.427 200.411 476.387 201.156L473.68 251.644L473.635 252.5L473.68 253.356L476.387 303.844C476.427 304.589 476.258 305.331 475.898 305.984L451.554 350.298L451.141 351.05L450.811 351.841L431.343 398.504C431.056 399.192 430.582 399.787 429.975 400.22L388.814 429.583L388.116 430.081L387.475 430.651L349.689 464.245C349.132 464.741 348.447 465.071 347.712 465.198L297.887 473.794L297.042 473.94L296.217 474.175L247.598 488.048C246.88 488.253 246.12 488.253 245.402 488.048L196.783 474.175L195.958 473.94L195.113 473.794L145.288 465.198C144.553 465.071 143.868 464.741 143.311 464.245L105.525 430.651L104.884 430.081L104.186 429.583L63.0253 400.22C62.418 399.787 61.9439 399.192 61.6567 398.504L42.1891 351.841L41.8589 351.05L41.4459 350.298L17.1017 305.984C16.7425 305.331 16.5733 304.589 16.6132 303.844L19.3196 253.356L19.3655 252.5L19.3196 251.644L16.6132 201.156C16.5733 200.411 16.7425 199.669 17.1017 199.016L41.4459 154.702L41.8589 153.95L42.1891 153.158L61.6567 106.496C61.9439 105.808 62.418 105.213 63.0253 104.78L104.186 75.4172L104.884 74.9191L105.525 74.3492L143.311 40.7546C143.868 40.2589 144.553 39.929 145.288 39.8022L195.113 31.206L195.958 31.0602L196.783 30.8249L245.402 16.9518C246.12 16.7471 246.88 16.7471 247.598 16.9518L296.217 30.8249Z" stroke="#E9E9E9" stroke-opacity="0.85" stroke-width="32"/>
</svg>
